<?xml version="1.0" standalone="no"?>
<!DOCTYPE svg PUBLIC "-//W3C//DTD SVG 20010904//EN"
 "http://www.w3.org/TR/2001/REC-SVG-20010904/DTD/svg10.dtd">
<svg version="1.0" xmlns="http://www.w3.org/2000/svg"
 width="176.000000pt" height="176.000000pt" viewBox="0 0 176.000000 176.000000"
 preserveAspectRatio="xMidYMid meet">

<g transform="translate(0.000000,176.000000) scale(0.100000,-0.100000)"
fill="#000000" stroke="none">
<path d="M857 1299 c-13 -8 -15 -14 -7 -30 7 -13 7 -19 0 -19 -5 0 -10 5 -10
10 0 18 -16 10 -30 -15 -12 -22 -11 -27 5 -45 17 -19 19 -19 37 -4 10 10 18
13 18 7 0 -5 -9 -18 -20 -28 -16 -14 -25 -16 -43 -8 -15 7 -27 7 -38 0 -19
-12 -49 -3 -49 14 0 8 4 9 13 0 11 -8 17 -5 26 15 13 30 -2 59 -26 50 -7 -3
-13 1 -13 9 0 12 -28 35 -43 35 -11 0 -14 -39 -4 -55 7 -13 6 -16 -2 -11 -16
11 -14 -39 3 -53 11 -9 15 -9 19 1 2 7 8 10 12 5 14 -13 -10 -28 -49 -30 -22
-1 -34 -6 -32 -13 3 -6 -1 -17 -7 -24 -9 -10 -8 -11 8 -7 102 27 144 32 260
30 114 -1 176 -8 250 -29 15 -5 17 -3 9 6 -9 9 -5 22 18 56 16 24 37 48 46 54
16 9 16 9 0 10 -10 0 -27 -9 -37 -19 -14 -14 -21 -16 -25 -8 -3 8 -10 5 -21
-8 -17 -22 -14 -42 6 -37 10 3 11 0 3 -8 -14 -14 -76 0 -82 19 -3 9 2 11 15 7
25 -8 48 17 38 41 -4 10 -9 29 -11 42 -4 32 -9 35 -34 21 -13 -7 -19 -17 -16
-26 3 -9 2 -12 -5 -9 -6 4 -19 -1 -29 -10 -15 -14 -17 -22 -9 -37 6 -11 17
-17 25 -14 8 3 14 1 14 -5 0 -15 -31 -23 -49 -12 -11 7 -23 7 -38 0 -18 -8
-27 -6 -43 8 -11 10 -20 23 -20 28 0 6 8 3 18 -7 18 -15 20 -15 35 2 21 23 21
31 1 57 -13 17 -16 18 -25 5 -9 -12 -10 -12 -5 4 7 20 -9 46 -28 46 -6 0 -19
-5 -29 -11z m33 -69 c0 -5 -4 -10 -10 -10 -5 0 -10 5 -10 10 0 6 5 10 10 10 6
0 10 -4 10 -10z m180 -14 c0 -3 -4 -8 -10 -11 -5 -3 -10 -1 -10 4 0 6 5 11 10
11 6 0 10 -2 10 -4z"/>
<path d="M540 1219 c0 -5 4 -8 9 -4 5 3 21 -9 35 -28 25 -32 66 -47 66 -24 -1
7 -7 23 -14 36 -13 23 -14 23 -24 5 -10 -16 -11 -16 -12 -3 0 9 -10 19 -22 23
-32 8 -38 7 -38 -5z"/>
<path d="M361 1174 c-23 -30 -26 -40 -11 -49 7 -4 7 -13 0 -26 -6 -11 -8 -24
-5 -29 3 -6 -6 -15 -20 -20 -34 -13 -33 -14 -27 16 10 53 -35 91 -77 65 -10
-7 -11 -13 -1 -30 10 -20 10 -21 -9 -9 -24 15 -68 2 -85 -25 -9 -15 -6 -22 14
-39 14 -12 20 -23 14 -25 -28 -10 -44 -31 -46 -63 -3 -29 1 -36 26 -48 22 -11
34 -12 54 -2 16 7 28 8 30 2 16 -50 52 -52 80 -2 12 20 22 28 34 24 12 -3 22
4 32 25 15 28 15 31 -9 59 -31 37 -31 42 0 42 39 0 105 -38 115 -65 8 -20 17
-25 45 -25 24 0 35 5 35 14 0 8 9 18 20 21 11 3 20 11 20 16 0 5 -9 14 -20 21
-11 7 -20 19 -20 26 0 8 -12 11 -37 9 -34 -3 -38 -6 -36 -28 l1 -26 -59 31
c-36 19 -59 37 -59 48 0 25 17 31 23 8 13 -49 70 -1 74 62 3 40 2 40 -26 35
-15 -3 -33 -1 -38 4 -7 7 -17 2 -32 -17z m-144 -170 c-3 -3 -12 -4 -19 -1 -8
3 -5 6 6 6 11 1 17 -2 13 -5z"/>
<path d="M1367 1193 c-4 -4 -20 -7 -34 -8 -24 0 -27 -4 -28 -37 -1 -27 5 -43
21 -59 25 -23 54 -20 54 6 0 9 5 13 10 10 25 -15 7 -42 -50 -72 -33 -18 -60
-28 -60 -23 0 5 5 12 10 15 18 11 -7 33 -37 33 -25 0 -83 -42 -83 -60 0 -4 9
-10 20 -13 11 -3 20 -13 20 -21 0 -9 11 -14 35 -14 28 0 37 5 45 24 9 25 82
66 118 66 28 0 28 -5 -3 -42 -24 -28 -24 -31 -9 -59 10 -21 20 -28 32 -25 12
4 22 -4 34 -24 28 -50 64 -48 81 3 2 6 11 5 25 -2 18 -9 31 -10 58 -1 34 12
36 14 29 49 -4 21 -16 44 -31 54 l-24 19 22 18 c19 15 21 22 12 37 -17 27 -61
40 -85 25 -19 -12 -19 -11 -9 9 13 24 1 39 -32 39 -24 0 -51 -45 -46 -75 5
-22 3 -25 -16 -19 -11 4 -21 7 -21 8 0 0 -5 15 -11 31 -8 22 -8 36 0 48 9 13
5 22 -15 42 -14 14 -28 22 -32 18z m200 -189 c-3 -3 -12 -4 -19 -1 -8 3 -5 6
6 6 11 1 17 -2 13 -5z"/>
<path d="M725 1113 c-67 -15 -83 -24 -78 -44 4 -15 11 -19 27 -15 91 25 345
25 411 0 17 -7 35 9 35 32 0 18 -121 34 -251 33 -68 -1 -133 -3 -144 -6z m65
-18 c0 -8 -4 -15 -9 -15 -13 0 -22 16 -14 24 11 11 23 6 23 -9z m50 5 c0 -5
-4 -10 -10 -10 -5 0 -10 5 -10 10 0 6 5 10 10 10 6 0 10 -4 10 -10z m50 0 c0
-5 -4 -10 -10 -10 -5 0 -10 5 -10 10 0 6 5 10 10 10 6 0 10 -4 10 -10z m50 0
c0 -5 -4 -10 -10 -10 -5 0 -10 5 -10 10 0 6 5 10 10 10 6 0 10 -4 10 -10z m50
-5 c0 -8 -4 -15 -10 -15 -5 0 -10 7 -10 15 0 8 5 15 10 15 6 0 10 -7 10 -15z
m-240 -5 c0 -5 -7 -10 -15 -10 -8 0 -15 5 -15 10 0 6 7 10 15 10 8 0 15 -4 15
-10z m290 0 c0 -5 -7 -10 -15 -10 -8 0 -15 5 -15 10 0 6 7 10 15 10 8 0 15 -4
15 -10z m-340 -10 c0 -5 -4 -10 -10 -10 -5 0 -10 5 -10 10 0 6 5 10 10 10 6 0
10 -4 10 -10z m380 0 c0 -5 -4 -10 -10 -10 -5 0 -10 5 -10 10 0 6 5 10 10 10
6 0 10 -4 10 -10z"/>
<path d="M687 1043 c-77 -21 -67 -27 14 -8 83 19 258 19 350 0 79 -17 104 -13
42 5 -63 20 -338 22 -406 3z"/>
<path d="M648 973 c-16 -4 -18 -21 -18 -179 0 -188 8 -227 51 -258 14 -9 43
-16 73 -16 43 0 53 -4 83 -35 19 -19 40 -35 48 -35 8 0 29 16 48 35 30 31 40
35 83 35 52 0 83 17 103 57 7 14 11 92 11 212 l0 191 -232 -1 c-128 -1 -241
-3 -250 -6z m92 -59 c0 -8 -9 -14 -20 -14 -19 0 -27 19 -14 33 10 9 34 -4 34
-19z m170 5 c0 -16 -31 -22 -43 -10 -9 9 -9 14 2 20 16 10 41 4 41 -10z m160
0 c0 -16 -31 -22 -43 -10 -9 9 -9 14 2 20 16 10 41 4 41 -10z m48 -194 c-4
-125 -6 -137 -28 -160 -21 -22 -31 -25 -101 -25 -55 0 -80 -4 -89 -15 -11 -13
-15 -13 -33 0 -15 10 -47 15 -98 15 -72 0 -79 2 -98 26 -19 24 -21 40 -21 160
l0 134 236 0 237 0 -5 -135z"/>
<path d="M960 703 c0 -85 3 -103 15 -103 11 0 15 12 15 45 0 25 4 45 9 45 4 0
14 -20 21 -45 9 -33 18 -45 31 -45 22 0 23 6 8 49 -9 25 -9 38 1 56 8 14 10
37 6 58 -6 34 -8 35 -56 39 l-50 3 0 -102z m68 44 c-2 -11 -9 -22 -15 -25 -16
-4 -27 22 -19 43 8 22 38 6 34 -18z"/>
<path d="M700 700 l0 -100 35 0 c55 0 75 27 75 101 0 84 -10 99 -65 99 l-45 0
0 -100z m68 1 c-2 -51 -6 -66 -18 -66 -11 0 -16 15 -18 59 -4 70 2 88 23 80
13 -5 15 -20 13 -73z"/>
<path d="M855 778 c-8 -34 -35 -169 -35 -174 0 -2 9 -4 20 -4 11 0 20 6 20 14
0 23 29 27 40 6 6 -11 17 -20 26 -20 16 0 16 3 -10 135 -10 50 -16 61 -34 63
-15 2 -23 -3 -27 -20z m31 -106 c-12 -12 -18 8 -10 35 l8 28 4 -28 c2 -16 1
-31 -2 -35z"/>
<path d="M437 939 c-9 -6 -17 -21 -17 -34 0 -19 5 -25 23 -25 25 0 47 17 47
37 0 19 -33 33 -53 22z"/>
<path d="M1284 935 c-25 -18 -8 -49 30 -53 22 -3 26 0 26 22 0 33 -30 50 -56
31z"/>
<path d="M502 908 c-17 -17 -15 -39 6 -66 14 -18 26 -23 53 -20 30 3 34 7 37
34 2 19 -3 38 -13 48 -19 19 -66 21 -83 4z"/>
<path d="M1176 904 c-11 -10 -16 -28 -14 -48 3 -29 6 -31 41 -31 31 0 41 5 55
28 13 21 14 31 6 45 -15 23 -67 27 -88 6z"/>
<path d="M407 852 c-20 -22 -21 -33 -5 -67 6 -15 20 -25 32 -26 l21 0 -21 -9
c-43 -17 -38 -91 6 -105 52 -17 95 36 65 81 -8 13 -21 24 -27 24 -7 0 -2 7 10
16 26 18 28 50 6 82 -19 27 -64 29 -87 4z"/>
<path d="M1266 848 c-22 -31 -20 -65 3 -80 20 -12 20 -12 0 -26 -27 -19 -26
-78 2 -92 27 -15 66 -5 79 20 14 27 2 70 -24 80 l-21 9 21 0 c12 1 26 11 32
26 16 35 15 49 -6 68 -26 24 -68 21 -86 -5z"/>
<path d="M318 839 c-12 -6 -18 -22 -18 -46 0 -30 3 -34 18 -28 9 4 30 10 45
13 23 4 26 8 21 26 -14 44 -33 55 -66 35z"/>
<path d="M1392 838 c-5 -7 -12 -23 -16 -34 -5 -18 -2 -22 21 -26 15 -3 36 -9
46 -13 14 -6 17 -2 17 29 0 46 -43 74 -68 44z"/>
<path d="M518 786 c-15 -35 -5 -52 36 -60 44 -8 56 -2 56 28 0 51 -71 76 -92
32z"/>
<path d="M1166 791 c-10 -11 -16 -30 -14 -43 3 -20 8 -23 41 -22 50 2 64 16
51 51 -12 35 -52 42 -78 14z"/>
<path d="M327 750 c-19 -27 -11 -59 20 -73 31 -14 45 0 47 50 1 34 -2 38 -26
41 -18 2 -31 -4 -41 -18z"/>
<path d="M1364 755 c-4 -9 -2 -30 3 -48 7 -25 14 -32 33 -32 34 0 55 41 36 70
-17 26 -64 32 -72 10z"/>
<path d="M525 687 c-8 -41 8 -77 33 -77 26 0 42 20 42 51 0 29 -12 43 -47 53
-19 6 -23 2 -28 -27z"/>
<path d="M1190 707 c-44 -22 -36 -97 11 -97 34 0 51 60 27 93 -11 14 -17 15
-38 4z"/>
<path d="M345 650 c-4 -6 0 -22 9 -35 14 -21 18 -22 48 -12 44 16 44 14 23 37
-19 21 -69 27 -80 10z"/>
<path d="M1335 640 c-21 -23 -21 -21 23 -37 30 -10 34 -9 48 12 9 13 13 29 9
35 -11 17 -61 11 -80 -10z"/>
<path d="M473 633 c-27 -5 -32 -43 -8 -63 31 -26 81 13 59 47 -12 19 -20 22
-51 16z"/>
<path d="M1241 626 c-27 -32 11 -82 47 -60 22 14 29 64 8 64 -8 0 -21 2 -29 5
-7 3 -19 -1 -26 -9z"/>
<path d="M392 588 c-19 -19 -14 -56 9 -69 18 -9 25 -7 42 9 19 20 19 22 3 46
-18 28 -35 33 -54 14z"/>
<path d="M540 590 c0 -5 -9 -19 -19 -29 -16 -16 -17 -22 -7 -31 8 -5 21 -8 30
-4 18 7 32 47 21 63 -8 14 -25 14 -25 1z"/>
<path d="M1195 589 c-11 -16 3 -56 21 -63 9 -4 22 -1 30 4 10 9 9 15 -7 31
-10 10 -19 24 -19 29 0 13 -17 13 -25 -1z"/>
<path d="M1314 574 c-16 -24 -16 -26 3 -45 24 -24 51 -16 59 17 7 26 -10 54
-32 54 -7 0 -21 -12 -30 -26z"/>
<path d="M450 526 c-16 -20 -9 -56 13 -70 39 -24 79 44 41 71 -23 17 -39 16
-54 -1z"/>
<path d="M1256 527 c-38 -27 2 -95 42 -71 21 14 28 50 12 70 -15 17 -31 18
-54 1z"/>
</g>
</svg>
